<?xml version="1.0" encoding="UTF-8"?>
<svg id="_Слой_2" data-name="Слой 2" xmlns="http://www.w3.org/2000/svg" width="66" height="66" viewBox="0 0 66 66">
  <defs>
    <style>
      .cls-1 {
        fill: #f5f5f5;
      }

      .cls-2 {
        fill: #ff4b55;
      }

      .cls-3 {
        fill: #011627;
      }

      .cls-4 {
        fill: #41479b;
      }
    </style>
  </defs>
  <g id="en">
    <g>
      <rect class="cls-1" x="34.6" y="26.77" width="25.4" height="4.15"/>
      <rect class="cls-1" x="2.4" y="43.39" width="58.38" height="4.15"/>
      <path class="cls-1" d="m2.4,33.66v5.58h58.38v-4.15H3.93c-.85,0-1.54-.64-1.54-1.42Z"/>
      <rect class="cls-1" x="2.4" y="51.69" width="58.38" height="4.15"/>
      <rect class="cls-1" x="34.6" y="18.46" width="25.4" height="4.15"/>
      <rect class="cls-1" x="34.6" y="10.15" width="25.4" height="4.15"/>
      <rect class="cls-1" x="5.36" y="3.03" width="56.44" height="59.1"/>
      <rect class="cls-2" x="2.4" y="47.54" width="58.38" height="4.15"/>
      <rect class="cls-2" x="36.57" y="22.62" width="23.43" height="4.15"/>
      <rect class="cls-2" x="2.4" y="39.23" width="58.38" height="4.15"/>
      <rect class="cls-2" x="36.81" y="14.31" width="23.19" height="4.15"/>
      <path class="cls-2" d="m43.88,33.66c0,.78-.69,1.42-1.54,1.42H3.93c-.85,0-1.54-.64-1.54-1.42h0c0,.78.69,1.42,1.54,1.42h56.85v-4.15h-16.9v2.73Z"/>
      <path class="cls-2" d="m2.4,57c0,1.65,1.49,3,3.33,3h53.27c1.84,0,3.33-1.35,3.33-3v-1.15H2.4v1.15Z"/>
      <path class="cls-2" d="m35.63,5.3l1.1,4.86h23.29v-1.15c0-1.65,1.06-3.53-1.4-3.53"/>
      <rect class="cls-1" x="2.49" y="26.77" width="58.38" height="4.15"/>
      <rect class="cls-2" x="2.49" y="30.92" width="58.38" height="4.15"/>
      <path class="cls-4" d="m7.26,29.76h29.54c.65,0,1.18-.53,1.18-1.18V6.76c0-.65-.53-1.18-1.18-1.18H8.57c-1.38,0-2.49,1.12-2.49,2.49v20.5c0,.65.53,1.18,1.18,1.18Zm9.07-2.66l-.67-.48-.67.48c-.09.06-.2-.02-.17-.12l.25-.79-.67-.49c-.09-.06-.04-.2.07-.2h.83s.26-.79.26-.79c.03-.1.18-.1.21,0l.26.78h.83c.11,0,.15.14.07.21l-.67.49.25.79c.03.1-.08.19-.17.12Zm-5.05-3.7h.83s.26-.79.26-.79c.03-.1.18-.1.21,0l.26.78h.83c.11,0,.15.14.07.21l-.67.49.25.79c.03.1-.08.19-.17.12l-.67-.48-.67.48c-.09.06-.2-.02-.17-.12l.25-.79-.67-.49c-.09-.06-.04-.2.07-.2Zm3.12-1.81c-.09-.06-.04-.2.07-.2h.83s.26-.79.26-.79c.03-.1.18-.1.21,0l.26.78h.83c.11,0,.15.14.07.21l-.67.49.25.79c.03.1-.08.19-.17.12l-.67-.48-.67.48c-.09.06-.2-.02-.17-.12l.25-.79-.67-.49Zm-1.08-9.02c.03.1-.08.19-.17.12l-.67-.48-.67.48c-.09.06-.2-.02-.17-.12l.25-.79-.67-.49c-.09-.06-.04-.2.07-.2h.83s.26-.79.26-.79c.03-.1.18-.1.21,0l.26.78h.83c.11,0,.15.14.07.21l-.67.49.25.79Zm1.15.61h.83s.26-.79.26-.79c.03-.1.18-.1.21,0l.26.78h.83c.11,0,.15.14.07.21l-.67.49.25.79c.03.1-.08.19-.17.12l-.67-.48-.67.48c-.09.06-.2-.02-.17-.12l.25-.79-.67-.49c-.09-.06-.04-.2.07-.2Zm3.12-1.89c-.09-.06-.04-.2.07-.2h.83s.26-.79.26-.79c.03-.1.18-.1.21,0l.26.78h.83c.11,0,.15.14.07.21l-.67.49.25.79c.03.1-.08.19-.17.12l-.67-.48-.67.48c-.09.06-.2-.02-.17-.12l.25-.79-.67-.49Zm6.37,0c-.09-.06-.04-.2.07-.2h.83s.26-.79.26-.79c.03-.1.18-.1.21,0l.26.78h.83c.11,0,.15.14.07.21l-.67.49.25.79c.03.1-.08.19-.17.12l-.67-.48-.67.48c-.09.06-.2-.02-.17-.12l.25-.79-.67-.49Zm6.37,0c-.09-.06-.04-.2.07-.2h.83s.26-.79.26-.79c.03-.1.18-.1.21,0l.26.78h.83c.11,0,.15.14.07.21l-.67.49.25.79c.03.1-.08.19-.17.12l-.67-.48-.67.48c-.09.06-.2-.02-.17-.12l.25-.79-.67-.49Zm-1.56,1.88h.83c.11,0,.15.14.07.21l-.67.49.25.79c.03.1-.08.19-.17.12l-.67-.48-.67.48c-.09.06-.2-.02-.17-.12l.25-.79-.67-.49c-.09-.06-.04-.2.07-.2h.83s.26-.79.26-.79c.03-.1.18-.1.21,0l.26.78Zm3.18,10.22h.83c.11,0,.15.14.07.21l-.67.49.25.79c.03.1-.08.19-.17.12l-.67-.48-.67.48c-.09.06-.2-.02-.17-.12l.25-.79-.67-.49c-.09-.06-.04-.2.07-.2h.83s.26-.79.26-.79c.03-.1.18-.1.21,0l.26.78Zm-2.29-1.8l-.67.49.25.79c.03.1-.08.19-.17.12l-.67-.48-.67.48c-.09.06-.2-.02-.17-.12l.25-.79-.67-.49c-.09-.06-.04-.2.07-.2h.83s.26-.79.26-.79c.03-.1.18-.1.21,0l.26.78h.83c.11,0,.15.14.07.21Zm-4.08,1.8h.83c.11,0,.15.14.07.21l-.67.49.25.79c.03.1-.08.19-.17.12l-.67-.48-.67.48c-.09.06-.2-.02-.17-.12l.25-.79-.67-.49c-.09-.06-.04-.2.07-.2h.83s.26-.79.26-.79c.03-.1.18-.1.21,0l.26.78Zm-2.71-.52c.03.1-.08.19-.17.12l-.67-.48-.67.48c-.09.06-.2-.02-.17-.12l.25-.79-.67-.49c-.09-.06-.04-.2.07-.2h.83s.26-.79.26-.79c.03-.1.18-.1.21,0l.26.78h.83c.11,0,.15.14.07.21l-.67.49.25.79Zm-3.66.52h.83c.11,0,.15.14.07.21l-.67.49.25.79c.03.1-.08.19-.17.12l-.67-.48-.67.48c-.09.06-.2-.02-.17-.12l.25-.79-.67-.49c-.09-.06-.04-.2.07-.2h.83s.26-.79.26-.79c.03-.1.18-.1.21,0l.26.78Zm1.62-6.11h.83s.26-.79.26-.79c.03-.1.18-.1.21,0l.26.78h.83c.11,0,.15.14.07.21l-.67.49.25.79c.03.1-.08.19-.17.12l-.67-.48-.67.48c-.09.06-.2-.02-.17-.12l.25-.79-.67-.49c-.09-.06-.04-.2.07-.2Zm5.64,2.21l-.67.49.25.79c.03.1-.08.19-.17.12l-.67-.48-.67.48c-.09.06-.2-.02-.17-.12l.25-.79-.67-.49c-.09-.06-.04-.2.07-.2h.83s.26-.79.26-.79c.03-.1.18-.1.21,0l.26.78h.83c.11,0,.15.14.07.21Zm3.18-2.01l-.67.49.25.79c.03.1-.08.19-.17.12l-.67-.48-.67.48c-.09.06-.2-.02-.17-.12l.25-.79-.67-.49c-.09-.06-.04-.2.07-.2h.83s.26-.79.26-.79c.03-.1.18-.1.21,0l.26.78h.83c.11,0,.15.14.07.21Zm-3.6-.81c.03.1-.08.19-.17.12l-.67-.48-.67.48c-.09.06-.2-.02-.17-.12l.25-.79-.67-.49c-.09-.06-.04-.2.07-.2h.83s.26-.79.26-.79c.03-.1.18-.1.21,0l.26.78h.83c.11,0,.15.14.07.21l-.67.49.25.79Zm-3.66-3.5h.83c.11,0,.15.14.07.21l-.67.49.25.79c.03.1-.08.19-.17.12l-.67-.48-.67.48c-.09.06-.2-.02-.17-.12l.25-.79-.67-.49c-.09-.06-.04-.2.07-.2h.83s.26-.79.26-.79c.03-.1.18-.1.21,0l.26.78Zm-4.81,2.22c-.09-.06-.04-.2.07-.2h.83s.26-.79.26-.79c.03-.1.18-.1.21,0l.26.78h.83c.11,0,.15.14.07.21l-.67.49.25.79c.03.1-.08.19-.17.12l-.67-.48-.67.48c-.09.06-.2-.02-.17-.12l.25-.79-.67-.49Zm-3.12,1.89h.83s.26-.79.26-.79c.03-.1.18-.1.21,0l.26.78h.83c.11,0,.15.14.07.21l-.67.49.25.79c.03.1-.08.19-.17.12l-.67-.48-.67.48c-.09.06-.2-.02-.17-.12l.25-.79-.67-.49c-.09-.06-.04-.2.07-.2Zm3.18,2.01h.83s.26-.79.26-.79c.03-.1.18-.1.21,0l.26.78h.83c.11,0,.15.14.07.21l-.67.49.25.79c.03.1-.08.19-.17.12l-.67-.48-.67.48c-.09.06-.2-.02-.17-.12l.25-.79-.67-.49c-.09-.06-.04-.2.07-.2Zm5.05,7.8l-.67-.48-.67.48c-.09.06-.2-.02-.17-.12l.25-.79-.67-.49c-.09-.06-.04-.2.07-.2h.83s.26-.79.26-.79c.03-.1.18-.1.21,0l.26.78h.83c.11,0,.15.14.07.21l-.67.49.25.79c.03.1-.08.19-.17.12Zm6.37,0l-.67-.48-.67.48c-.09.06-.2-.02-.17-.12l.25-.79-.67-.49c-.09-.06-.04-.2.07-.2h.83s.26-.79.26-.79c.03-.1.18-.1.21,0l.26.78h.83c.11,0,.15.14.07.21l-.67.49.25.79c.03.1-.08.19-.17.12Zm6.54-.12c.03.1-.08.19-.17.12l-.67-.48-.67.48c-.09.06-.2-.02-.17-.12l.25-.79-.67-.49c-.09-.06-.04-.2.07-.2h.83s.26-.79.26-.79c.03-.1.18-.1.21,0l.26.78h.83c.11,0,.15.14.07.21l-.67.49.25.79Zm0-4.1c.03.1-.08.19-.17.12l-.67-.48-.67.48c-.09.06-.2-.02-.17-.12l.25-.79-.67-.49c-.09-.06-.04-.2.07-.2h.83s.26-.79.26-.79c.03-.1.18-.1.21,0l.26.78h.83c.11,0,.15.14.07.21l-.67.49.25.79Zm-2.77-3.37l-.67.49.25.79c.03.1-.08.19-.17.12l-.67-.48-.67.48c-.09.06-.2-.02-.17-.12l.25-.79-.67-.49c-.09-.06-.04-.2.07-.2h.83s.26-.79.26-.79c.03-.1.18-.1.21,0l.26.78h.83c.11,0,.15.14.07.21Zm2.77-.73c.03.1-.08.19-.17.12l-.67-.48-.67.48c-.09.06-.2-.02-.17-.12l.25-.79-.67-.49c-.09-.06-.04-.2.07-.2h.83s.26-.79.26-.79c.03-.1.18-.1.21,0l.26.78h.83c.11,0,.15.14.07.21l-.67.49.25.79Zm-3.18-2.09c.03.1-.08.19-.17.12l-.67-.48-.67.48c-.09.06-.2-.02-.17-.12l.25-.79-.67-.49c-.09-.06-.04-.2.07-.2h.83s.26-.79.26-.79c.03-.1.18-.1.21,0l.26.78h.83c.11,0,.15.14.07.21l-.67.49.25.79Zm2.71-3.5h.83c.11,0,.15.14.07.21l-.67.49.25.79c.03.1-.08.19-.17.12l-.67-.48-.67.48c-.09.06-.2-.02-.17-.12l.25-.79-.67-.49c-.09-.06-.04-.2.07-.2h.83s.26-.79.26-.79c.03-.1.18-.1.21,0l.26.78Zm-.26-4.89l.26.78h.83c.11,0,.15.14.07.21l-.67.49.25.79c.03.1-.08.19-.17.12l-.67-.48-.67.48c-.09.06-.2-.02-.17-.12l.25-.79-.67-.49c-.09-.06-.04-.2.07-.2h.83s.26-.79.26-.79c.03-.1.18-.1.21,0Zm-6.37,0l.26.78h.83c.11,0,.15.14.07.21l-.67.49.25.79c.03.1-.08.19-.17.12l-.67-.48-.67.48c-.09.06-.2-.02-.17-.12l.25-.79-.67-.49c-.09-.06-.04-.2.07-.2h.83s.26-.79.26-.79c.03-.1.18-.1.21,0Zm-6.37,0l.26.78h.83c.11,0,.15.14.07.21l-.67.49.25.79c.03.1-.08.19-.17.12l-.67-.48-.67.48c-.09.06-.2-.02-.17-.12l.25-.79-.67-.49c-.09-.06-.04-.2.07-.2h.83s.26-.79.26-.79c.03-.1.18-.1.21,0Zm-6.37,0l.26.78h.83c.11,0,.15.14.07.21l-.67.49.25.79c.03.1-.08.19-.17.12l-.67-.48-.67.48c-.09.06-.2-.02-.17-.12l.25-.79-.67-.49c-.09-.06-.04-.2.07-.2h.83s.26-.79.26-.79c.03-.1.18-.1.21,0Zm-6.58,0c.03-.1.18-.1.21,0l.26.78h.83c.11,0,.15.14.07.21l-.67.49.25.79c.03.1-.08.19-.17.12l-.67-.48-.67.48c-.09.06-.2-.02-.17-.12l.25-.79-.67-.49c-.09-.06-.04-.2.07-.2h.83s.26-.79.26-.79Zm0,4.1c.03-.1.18-.1.21,0l.26.78h.83c.11,0,.15.14.07.21l-.67.49.25.79c.03.1-.08.19-.17.12l-.67-.48-.67.48c-.09.06-.2-.02-.17-.12l.25-.79-.67-.49c-.09-.06-.04-.2.07-.2h.83s.26-.79.26-.79Zm2.03,3c-.09-.06-.04-.2.07-.2h.83s.26-.79.26-.79c.03-.1.18-.1.21,0l.26.78h.83c.11,0,.15.14.07.21l-.67.49.25.79c.03.1-.08.19-.17.12l-.67-.48-.67.48c-.09.06-.2-.02-.17-.12l.25-.79-.67-.49Zm-1.08,3.37c.03.1-.08.19-.17.12l-.67-.48-.67.48c-.09.06-.2-.02-.17-.12l.25-.79-.67-.49c-.09-.06-.04-.2.07-.2h.83s.26-.79.26-.79c.03-.1.18-.1.21,0l.26.78h.83c.11,0,.15.14.07.21l-.67.49.25.79Zm1.15.53h.83s.26-.79.26-.79c.03-.1.18-.1.21,0l.26.78h.83c.11,0,.15.14.07.21l-.67.49.25.79c.03.1-.08.19-.17.12l-.67-.48-.67.48c-.09.06-.2-.02-.17-.12l.25-.79-.67-.49c-.09-.06-.04-.2.07-.2Zm-3.25,2.29c-.09-.06-.04-.2.07-.2h.83s.26-.79.26-.79c.03-.1.18-.1.21,0l.26.78h.83c.11,0,.15.14.07.21l-.67.49.25.79c.03.1-.08.19-.17.12l-.67-.48-.67.48c-.09.06-.2-.02-.17-.12l.25-.79-.67-.49Zm0,4.1c-.09-.06-.04-.2.07-.2h.83s.26-.79.26-.79c.03-.1.18-.1.21,0l.26.78h.83c.11,0,.15.14.07.21l-.67.49.25.79c.03.1-.08.19-.17.12l-.67-.48-.67.48c-.09.06-.2-.02-.17-.12l.25-.79-.67-.49Z"/>
      <path class="cls-3" d="m66,55.85V9c0-1.05-.19-2.06-.53-3-1.24-3.49-4.57-6-8.47-6H9C4.04,0,0,4.04,0,9v48c0,4.96,4.04,9,9,9h48c3.91,0,7.24-2.51,8.47-6,.33-.94.53-1.95.53-3v-1.15ZM57,6c1.65,0,3,1.35,3,3v48c0,1.65-1.35,3-3,3H9c-1.65,0-3-1.35-3-3v-23.34h0V9c0-1.65,1.35-3,3-3,0,0,0,0,0,0h48Z"/>
    </g>
  </g>
</svg>